<?xml version="1.0" encoding="UTF-8" ?>
<svg version="1.1" width="150" height="150" xmlns="http://www.w3.org/2000/svg" shape-rendering="crispEdges">
<rect x="118" y="3" width="1" height="1" fill="#372452" />
<rect x="119" y="3" width="1" height="1" fill="#372452" />
<rect x="120" y="3" width="1" height="1" fill="#372452" />
<rect x="118" y="4" width="1" height="1" fill="#372452" />
<rect x="119" y="4" width="1" height="1" fill="#372452" />
<rect x="120" y="4" width="1" height="1" fill="#372452" />
<rect x="118" y="5" width="1" height="1" fill="#372452" />
<rect x="119" y="5" width="1" height="1" fill="#372452" />
<rect x="120" y="5" width="1" height="1" fill="#372452" />
<rect x="44" y="10" width="1" height="1" fill="#372452" />
<rect x="48" y="10" width="1" height="1" fill="#372452" />
<rect x="52" y="10" width="1" height="1" fill="#372452" />
<rect x="46" y="11" width="1" height="1" fill="#372452" />
<rect x="47" y="11" width="1" height="1" fill="#372452" />
<rect x="48" y="11" width="1" height="1" fill="#372452" />
<rect x="49" y="11" width="1" height="1" fill="#372452" />
<rect x="50" y="11" width="1" height="1" fill="#372452" />
<rect x="45" y="12" width="1" height="1" fill="#372452" />
<rect x="46" y="12" width="1" height="1" fill="#372452" />
<rect x="47" y="12" width="1" height="1" fill="#372452" />
<rect x="48" y="12" width="1" height="1" fill="#372452" />
<rect x="49" y="12" width="1" height="1" fill="#372452" />
<rect x="50" y="12" width="1" height="1" fill="#372452" />
<rect x="51" y="12" width="1" height="1" fill="#372452" />
<rect x="45" y="13" width="1" height="1" fill="#372452" />
<rect x="46" y="13" width="1" height="1" fill="#372452" />
<rect x="47" y="13" width="1" height="1" fill="#372452" />
<rect x="48" y="13" width="1" height="1" fill="#372452" />
<rect x="49" y="13" width="1" height="1" fill="#372452" />
<rect x="50" y="13" width="1" height="1" fill="#372452" />
<rect x="51" y="13" width="1" height="1" fill="#372452" />
<rect x="44" y="14" width="1" height="1" fill="#372452" />
<rect x="45" y="14" width="1" height="1" fill="#372452" />
<rect x="46" y="14" width="1" height="1" fill="#372452" />
<rect x="47" y="14" width="1" height="1" fill="#372452" />
<rect x="48" y="14" width="1" height="1" fill="#372452" />
<rect x="49" y="14" width="1" height="1" fill="#372452" />
<rect x="50" y="14" width="1" height="1" fill="#372452" />
<rect x="51" y="14" width="1" height="1" fill="#372452" />
<rect x="52" y="14" width="1" height="1" fill="#372452" />
<rect x="15" y="15" width="1" height="1" fill="#372452" />
<rect x="16" y="15" width="1" height="1" fill="#372452" />
<rect x="45" y="15" width="1" height="1" fill="#372452" />
<rect x="46" y="15" width="1" height="1" fill="#372452" />
<rect x="47" y="15" width="1" height="1" fill="#372452" />
<rect x="48" y="15" width="1" height="1" fill="#372452" />
<rect x="49" y="15" width="1" height="1" fill="#372452" />
<rect x="50" y="15" width="1" height="1" fill="#372452" />
<rect x="51" y="15" width="1" height="1" fill="#372452" />
<rect x="15" y="16" width="1" height="1" fill="#372452" />
<rect x="16" y="16" width="1" height="1" fill="#372452" />
<rect x="45" y="16" width="1" height="1" fill="#372452" />
<rect x="46" y="16" width="1" height="1" fill="#372452" />
<rect x="47" y="16" width="1" height="1" fill="#372452" />
<rect x="48" y="16" width="1" height="1" fill="#372452" />
<rect x="49" y="16" width="1" height="1" fill="#372452" />
<rect x="50" y="16" width="1" height="1" fill="#372452" />
<rect x="51" y="16" width="1" height="1" fill="#372452" />
<rect x="46" y="17" width="1" height="1" fill="#372452" />
<rect x="47" y="17" width="1" height="1" fill="#372452" />
<rect x="48" y="17" width="1" height="1" fill="#372452" />
<rect x="49" y="17" width="1" height="1" fill="#372452" />
<rect x="50" y="17" width="1" height="1" fill="#372452" />
<rect x="44" y="18" width="1" height="1" fill="#372452" />
<rect x="48" y="18" width="1" height="1" fill="#372452" />
<rect x="52" y="18" width="1" height="1" fill="#372452" />
<rect x="77" y="31" width="1" height="1" fill="#372452" />
<rect x="78" y="31" width="1" height="1" fill="#372452" />
<rect x="79" y="31" width="1" height="1" fill="#372452" />
<rect x="77" y="32" width="1" height="1" fill="#372452" />
<rect x="78" y="32" width="1" height="1" fill="#372452" />
<rect x="79" y="32" width="1" height="1" fill="#372452" />
<rect x="77" y="33" width="1" height="1" fill="#372452" />
<rect x="78" y="33" width="1" height="1" fill="#372452" />
<rect x="79" y="33" width="1" height="1" fill="#372452" />
<rect x="119" y="59" width="1" height="1" fill="#372452" />
<rect x="120" y="59" width="1" height="1" fill="#372452" />
<rect x="121" y="59" width="1" height="1" fill="#372452" />
<rect x="119" y="60" width="1" height="1" fill="#372452" />
<rect x="120" y="60" width="1" height="1" fill="#372452" />
<rect x="121" y="60" width="1" height="1" fill="#372452" />
<rect x="119" y="61" width="1" height="1" fill="#372452" />
<rect x="120" y="61" width="1" height="1" fill="#372452" />
<rect x="121" y="61" width="1" height="1" fill="#372452" />
<rect x="19" y="72" width="1" height="1" fill="#372452" />
<rect x="20" y="72" width="1" height="1" fill="#372452" />
<rect x="21" y="72" width="1" height="1" fill="#372452" />
<rect x="19" y="73" width="1" height="1" fill="#372452" />
<rect x="20" y="73" width="1" height="1" fill="#372452" />
<rect x="21" y="73" width="1" height="1" fill="#372452" />
<rect x="64" y="73" width="1" height="1" fill="#372452" />
<rect x="65" y="73" width="1" height="1" fill="#372452" />
<rect x="66" y="73" width="1" height="1" fill="#372452" />
<rect x="67" y="73" width="1" height="1" fill="#372452" />
<rect x="68" y="73" width="1" height="1" fill="#372452" />
<rect x="19" y="74" width="1" height="1" fill="#372452" />
<rect x="20" y="74" width="1" height="1" fill="#372452" />
<rect x="21" y="74" width="1" height="1" fill="#372452" />
<rect x="63" y="74" width="1" height="1" fill="#372452" />
<rect x="64" y="74" width="1" height="1" fill="#372452" />
<rect x="65" y="74" width="1" height="1" fill="#372452" />
<rect x="66" y="74" width="1" height="1" fill="#372452" />
<rect x="67" y="74" width="1" height="1" fill="#372452" />
<rect x="68" y="74" width="1" height="1" fill="#372452" />
<rect x="69" y="74" width="1" height="1" fill="#372452" />
<rect x="63" y="75" width="1" height="1" fill="#372452" />
<rect x="64" y="75" width="1" height="1" fill="#372452" />
<rect x="65" y="75" width="1" height="1" fill="#372452" />
<rect x="66" y="75" width="1" height="1" fill="#372452" />
<rect x="67" y="75" width="1" height="1" fill="#372452" />
<rect x="68" y="75" width="1" height="1" fill="#372452" />
<rect x="69" y="75" width="1" height="1" fill="#372452" />
<rect x="63" y="76" width="1" height="1" fill="#372452" />
<rect x="64" y="76" width="1" height="1" fill="#372452" />
<rect x="65" y="76" width="1" height="1" fill="#372452" />
<rect x="66" y="76" width="1" height="1" fill="#372452" />
<rect x="67" y="76" width="1" height="1" fill="#372452" />
<rect x="68" y="76" width="1" height="1" fill="#372452" />
<rect x="69" y="76" width="1" height="1" fill="#372452" />
<rect x="63" y="77" width="1" height="1" fill="#372452" />
<rect x="64" y="77" width="1" height="1" fill="#372452" />
<rect x="65" y="77" width="1" height="1" fill="#372452" />
<rect x="66" y="77" width="1" height="1" fill="#372452" />
<rect x="67" y="77" width="1" height="1" fill="#372452" />
<rect x="68" y="77" width="1" height="1" fill="#372452" />
<rect x="69" y="77" width="1" height="1" fill="#372452" />
<rect x="63" y="78" width="1" height="1" fill="#372452" />
<rect x="64" y="78" width="1" height="1" fill="#372452" />
<rect x="65" y="78" width="1" height="1" fill="#372452" />
<rect x="66" y="78" width="1" height="1" fill="#372452" />
<rect x="67" y="78" width="1" height="1" fill="#372452" />
<rect x="68" y="78" width="1" height="1" fill="#372452" />
<rect x="69" y="78" width="1" height="1" fill="#372452" />
<rect x="64" y="79" width="1" height="1" fill="#372452" />
<rect x="65" y="79" width="1" height="1" fill="#372452" />
<rect x="66" y="79" width="1" height="1" fill="#372452" />
<rect x="67" y="79" width="1" height="1" fill="#372452" />
<rect x="68" y="79" width="1" height="1" fill="#372452" />
<rect x="101" y="94" width="1" height="1" fill="#372452" />
<rect x="102" y="94" width="1" height="1" fill="#372452" />
<rect x="101" y="95" width="1" height="1" fill="#372452" />
<rect x="102" y="95" width="1" height="1" fill="#372452" />
<rect x="127" y="120" width="1" height="1" fill="#372452" />
<rect x="128" y="120" width="1" height="1" fill="#372452" />
<rect x="129" y="120" width="1" height="1" fill="#372452" />
<rect x="130" y="120" width="1" height="1" fill="#372452" />
<rect x="131" y="120" width="1" height="1" fill="#372452" />
<rect x="132" y="120" width="1" height="1" fill="#372452" />
<rect x="133" y="120" width="1" height="1" fill="#372452" />
<rect x="127" y="121" width="1" height="1" fill="#372452" />
<rect x="128" y="121" width="1" height="1" fill="#372452" />
<rect x="129" y="121" width="1" height="1" fill="#372452" />
<rect x="130" y="121" width="1" height="1" fill="#372452" />
<rect x="131" y="121" width="1" height="1" fill="#372452" />
<rect x="132" y="121" width="1" height="1" fill="#372452" />
<rect x="133" y="121" width="1" height="1" fill="#372452" />
<rect x="22" y="122" width="1" height="1" fill="#372452" />
<rect x="23" y="122" width="1" height="1" fill="#372452" />
<rect x="127" y="122" width="1" height="1" fill="#372452" />
<rect x="128" y="122" width="1" height="1" fill="#372452" />
<rect x="129" y="122" width="1" height="1" fill="#372452" />
<rect x="130" y="122" width="1" height="1" fill="#372452" />
<rect x="131" y="122" width="1" height="1" fill="#372452" />
<rect x="132" y="122" width="1" height="1" fill="#372452" />
<rect x="133" y="122" width="1" height="1" fill="#372452" />
<rect x="22" y="123" width="1" height="1" fill="#372452" />
<rect x="28" y="123" width="1" height="1" fill="#372452" />
<rect x="29" y="123" width="1" height="1" fill="#372452" />
<rect x="127" y="123" width="1" height="1" fill="#372452" />
<rect x="128" y="123" width="1" height="1" fill="#372452" />
<rect x="129" y="123" width="1" height="1" fill="#372452" />
<rect x="130" y="123" width="1" height="1" fill="#372452" />
<rect x="131" y="123" width="1" height="1" fill="#372452" />
<rect x="132" y="123" width="1" height="1" fill="#372452" />
<rect x="133" y="123" width="1" height="1" fill="#372452" />
<rect x="23" y="124" width="1" height="1" fill="#372452" />
<rect x="24" y="124" width="1" height="1" fill="#372452" />
<rect x="25" y="124" width="1" height="1" fill="#372452" />
<rect x="26" y="124" width="1" height="1" fill="#372452" />
<rect x="27" y="124" width="1" height="1" fill="#372452" />
<rect x="29" y="124" width="1" height="1" fill="#372452" />
<rect x="127" y="124" width="1" height="1" fill="#372452" />
<rect x="128" y="124" width="1" height="1" fill="#372452" />
<rect x="129" y="124" width="1" height="1" fill="#372452" />
<rect x="130" y="124" width="1" height="1" fill="#372452" />
<rect x="131" y="124" width="1" height="1" fill="#372452" />
<rect x="132" y="124" width="1" height="1" fill="#372452" />
<rect x="133" y="124" width="1" height="1" fill="#372452" />
<rect x="23" y="125" width="1" height="1" fill="#372452" />
<rect x="24" y="125" width="1" height="1" fill="#372452" />
<rect x="25" y="125" width="1" height="1" fill="#372452" />
<rect x="26" y="125" width="1" height="1" fill="#372452" />
<rect x="27" y="125" width="1" height="1" fill="#372452" />
<rect x="127" y="125" width="1" height="1" fill="#372452" />
<rect x="128" y="125" width="1" height="1" fill="#372452" />
<rect x="129" y="125" width="1" height="1" fill="#372452" />
<rect x="130" y="125" width="1" height="1" fill="#372452" />
<rect x="131" y="125" width="1" height="1" fill="#372452" />
<rect x="132" y="125" width="1" height="1" fill="#372452" />
<rect x="133" y="125" width="1" height="1" fill="#372452" />
<rect x="23" y="126" width="1" height="1" fill="#372452" />
<rect x="24" y="126" width="1" height="1" fill="#372452" />
<rect x="25" y="126" width="1" height="1" fill="#372452" />
<rect x="26" y="126" width="1" height="1" fill="#372452" />
<rect x="27" y="126" width="1" height="1" fill="#372452" />
<rect x="127" y="126" width="1" height="1" fill="#372452" />
<rect x="128" y="126" width="1" height="1" fill="#372452" />
<rect x="129" y="126" width="1" height="1" fill="#372452" />
<rect x="130" y="126" width="1" height="1" fill="#372452" />
<rect x="131" y="126" width="1" height="1" fill="#372452" />
<rect x="132" y="126" width="1" height="1" fill="#372452" />
<rect x="133" y="126" width="1" height="1" fill="#372452" />
<rect x="23" y="127" width="1" height="1" fill="#372452" />
<rect x="24" y="127" width="1" height="1" fill="#372452" />
<rect x="25" y="127" width="1" height="1" fill="#372452" />
<rect x="26" y="127" width="1" height="1" fill="#372452" />
<rect x="27" y="127" width="1" height="1" fill="#372452" />
<rect x="21" y="128" width="1" height="1" fill="#372452" />
<rect x="23" y="128" width="1" height="1" fill="#372452" />
<rect x="24" y="128" width="1" height="1" fill="#372452" />
<rect x="25" y="128" width="1" height="1" fill="#372452" />
<rect x="26" y="128" width="1" height="1" fill="#372452" />
<rect x="27" y="128" width="1" height="1" fill="#372452" />
<rect x="21" y="129" width="1" height="1" fill="#372452" />
<rect x="22" y="129" width="1" height="1" fill="#372452" />
<rect x="28" y="129" width="1" height="1" fill="#372452" />
<rect x="27" y="130" width="1" height="1" fill="#372452" />
<rect x="28" y="130" width="1" height="1" fill="#372452" />
<rect x="79" y="135" width="1" height="1" fill="#372452" />
<rect x="80" y="135" width="1" height="1" fill="#372452" />
<rect x="81" y="135" width="1" height="1" fill="#372452" />
<rect x="79" y="136" width="1" height="1" fill="#372452" />
<rect x="80" y="136" width="1" height="1" fill="#372452" />
<rect x="81" y="136" width="1" height="1" fill="#372452" />
<rect x="79" y="137" width="1" height="1" fill="#372452" />
<rect x="80" y="137" width="1" height="1" fill="#372452" />
<rect x="81" y="137" width="1" height="1" fill="#372452" />
</svg>